<mxfile host="app.diagrams.net" modified="2022-05-10T10:26:53.207Z" agent="5.0 (Macintosh; Intel Mac OS X 10_15_7) AppleWebKit/605.1.15 (KHTML, like Gecko) Version/15.4 Safari/605.1.15" etag="LpUul_upw4rONR83Zh0I" version="18.0.2" type="github">
  <diagram id="kgpKYQtTHZ0yAKxKKP6v" name="Page-1">
    <mxGraphModel dx="1194" dy="697" grid="1" gridSize="10" guides="1" tooltips="1" connect="1" arrows="1" fold="1" page="1" pageScale="1" pageWidth="850" pageHeight="1100" math="0" shadow="0">
      <root>
        <mxCell id="0" />
        <mxCell id="1" parent="0" />
        <mxCell id="3nuBFxr9cyL0pnOWT2aG-1" value="服务端" style="shape=umlLifeline;perimeter=lifelinePerimeter;container=1;collapsible=0;recursiveResize=0;rounded=0;shadow=0;strokeWidth=1;" parent="1" vertex="1">
          <mxGeometry x="80" y="40" width="100" height="300" as="geometry" />
        </mxCell>
        <mxCell id="3nuBFxr9cyL0pnOWT2aG-2" value="" style="points=[];perimeter=orthogonalPerimeter;rounded=0;shadow=0;strokeWidth=1;" parent="3nuBFxr9cyL0pnOWT2aG-1" vertex="1">
          <mxGeometry x="45" y="80" width="10" height="50" as="geometry" />
        </mxCell>
        <mxCell id="3nuBFxr9cyL0pnOWT2aG-3" value="执行测试脚本" style="verticalAlign=bottom;startArrow=oval;endArrow=block;startSize=8;shadow=0;strokeWidth=1;" parent="3nuBFxr9cyL0pnOWT2aG-1" target="3nuBFxr9cyL0pnOWT2aG-2" edge="1">
          <mxGeometry relative="1" as="geometry">
            <mxPoint x="-40" y="80" as="sourcePoint" />
          </mxGeometry>
        </mxCell>
        <mxCell id="3nuBFxr9cyL0pnOWT2aG-5" value="测试设备/App" style="shape=umlLifeline;perimeter=lifelinePerimeter;container=1;collapsible=0;recursiveResize=0;rounded=0;shadow=0;strokeWidth=1;" parent="1" vertex="1">
          <mxGeometry x="590" y="40" width="100" height="300" as="geometry" />
        </mxCell>
        <mxCell id="3nuBFxr9cyL0pnOWT2aG-6" value="" style="points=[];perimeter=orthogonalPerimeter;rounded=0;shadow=0;strokeWidth=1;" parent="3nuBFxr9cyL0pnOWT2aG-5" vertex="1">
          <mxGeometry x="45" y="80" width="10" height="50" as="geometry" />
        </mxCell>
        <mxCell id="LrpCRTIKNoxcV90RqwvY-5" style="edgeStyle=orthogonalEdgeStyle;rounded=0;orthogonalLoop=1;jettySize=auto;html=1;entryX=0.962;entryY=0.495;entryDx=0;entryDy=0;entryPerimeter=0;" edge="1" parent="3nuBFxr9cyL0pnOWT2aG-5" source="LrpCRTIKNoxcV90RqwvY-1" target="LrpCRTIKNoxcV90RqwvY-4">
          <mxGeometry relative="1" as="geometry">
            <Array as="points">
              <mxPoint x="75" y="180" />
              <mxPoint x="75" y="235" />
            </Array>
          </mxGeometry>
        </mxCell>
        <mxCell id="LrpCRTIKNoxcV90RqwvY-6" value="Stub模块启动HTTP服务，&lt;br&gt;提供View层级获取API" style="edgeLabel;html=1;align=center;verticalAlign=middle;resizable=0;points=[];" vertex="1" connectable="0" parent="LrpCRTIKNoxcV90RqwvY-5">
          <mxGeometry x="0.2376" y="-2" relative="1" as="geometry">
            <mxPoint x="87" y="-9" as="offset" />
          </mxGeometry>
        </mxCell>
        <mxCell id="LrpCRTIKNoxcV90RqwvY-1" value="" style="points=[];perimeter=orthogonalPerimeter;rounded=0;shadow=0;strokeWidth=1;" vertex="1" parent="3nuBFxr9cyL0pnOWT2aG-5">
          <mxGeometry x="45" y="140" width="10" height="50" as="geometry" />
        </mxCell>
        <mxCell id="LrpCRTIKNoxcV90RqwvY-2" style="edgeStyle=orthogonalEdgeStyle;rounded=0;orthogonalLoop=1;jettySize=auto;html=1;" edge="1" parent="3nuBFxr9cyL0pnOWT2aG-5" source="3nuBFxr9cyL0pnOWT2aG-6" target="LrpCRTIKNoxcV90RqwvY-1">
          <mxGeometry relative="1" as="geometry">
            <mxPoint x="129.99999999999977" y="169.9999999999999" as="targetPoint" />
            <Array as="points">
              <mxPoint x="75" y="105" />
              <mxPoint x="75" y="150" />
            </Array>
          </mxGeometry>
        </mxCell>
        <mxCell id="LrpCRTIKNoxcV90RqwvY-3" value="拉起被测试的App" style="edgeLabel;html=1;align=center;verticalAlign=middle;resizable=0;points=[];" vertex="1" connectable="0" parent="LrpCRTIKNoxcV90RqwvY-2">
          <mxGeometry x="0.3463" relative="1" as="geometry">
            <mxPoint x="55" y="-14" as="offset" />
          </mxGeometry>
        </mxCell>
        <mxCell id="LrpCRTIKNoxcV90RqwvY-4" value="" style="points=[];perimeter=orthogonalPerimeter;rounded=0;shadow=0;strokeWidth=1;" vertex="1" parent="3nuBFxr9cyL0pnOWT2aG-5">
          <mxGeometry x="45" y="210" width="10" height="50" as="geometry" />
        </mxCell>
        <mxCell id="3nuBFxr9cyL0pnOWT2aG-8" value="&#xa;唤起FastbotRunner" style="verticalAlign=bottom;endArrow=block;shadow=0;strokeWidth=1;exitX=1.203;exitY=0.377;exitDx=0;exitDy=0;exitPerimeter=0;" parent="1" source="3nuBFxr9cyL0pnOWT2aG-2" target="3nuBFxr9cyL0pnOWT2aG-6" edge="1">
          <mxGeometry relative="1" as="geometry">
            <mxPoint x="275" y="160" as="sourcePoint" />
          </mxGeometry>
        </mxCell>
      </root>
    </mxGraphModel>
  </diagram>
</mxfile>
